<?xml version="1.0" encoding="UTF-8"?>
<!DOCTYPE svg PUBLIC "-//W3C//DTD SVG 1.1//EN" "http://www.w3.org/Graphics/SVG/1.1/DTD/svg11.dtd">
<svg version="1.2" width="71.44mm" height="14.33mm" viewBox="0 0 7144 1433" preserveAspectRatio="xMidYMid" fill-rule="evenodd" stroke-width="28.222" stroke-linejoin="round" xmlns="http://www.w3.org/2000/svg" xmlns:ooo="http://xml.openoffice.org/svg/export" xmlns:xlink="http://www.w3.org/1999/xlink" xmlns:presentation="http://sun.com/xmlns/staroffice/presentation" xmlns:smil="http://www.w3.org/2001/SMIL20/" xmlns:anim="urn:oasis:names:tc:opendocument:xmlns:animation:1.0" xml:space="preserve">
 <defs class="ClipPathGroup">
  <clipPath id="presentation_clip_path" clipPathUnits="userSpaceOnUse">
   <rect x="0" y="0" width="7144" height="1433"/>
  </clipPath>
  <clipPath id="presentation_clip_path_shrink" clipPathUnits="userSpaceOnUse">
   <rect x="7" y="1" width="7130" height="1431"/>
  </clipPath>
 </defs>
 <defs class="TextShapeIndex">
  <g ooo:slide="id1" ooo:id-list="id3"/>
 </defs>
 <defs class="EmbeddedBulletChars">
  <g id="bullet-char-template-57356" transform="scale(0.00048828125,-0.00048828125)">
   <path d="M 580,1141 L 1163,571 580,0 -4,571 580,1141 Z"/>
  </g>
  <g id="bullet-char-template-57354" transform="scale(0.00048828125,-0.00048828125)">
   <path d="M 8,1128 L 1137,1128 1137,0 8,0 8,1128 Z"/>
  </g>
  <g id="bullet-char-template-10146" transform="scale(0.00048828125,-0.00048828125)">
   <path d="M 174,0 L 602,739 174,1481 1456,739 174,0 Z M 1358,739 L 309,1346 659,739 1358,739 Z"/>
  </g>
  <g id="bullet-char-template-10132" transform="scale(0.00048828125,-0.00048828125)">
   <path d="M 2015,739 L 1276,0 717,0 1260,543 174,543 174,936 1260,936 717,1481 1274,1481 2015,739 Z"/>
  </g>
  <g id="bullet-char-template-10007" transform="scale(0.00048828125,-0.00048828125)">
   <path d="M 0,-2 C -7,14 -16,27 -25,37 L 356,567 C 262,823 215,952 215,954 215,979 228,992 255,992 264,992 276,990 289,987 310,991 331,999 354,1012 L 381,999 492,748 772,1049 836,1024 860,1049 C 881,1039 901,1025 922,1006 886,937 835,863 770,784 769,783 710,716 594,584 L 774,223 C 774,196 753,168 711,139 L 727,119 C 717,90 699,76 672,76 641,76 570,178 457,381 L 164,-76 C 142,-110 111,-127 72,-127 30,-127 9,-110 8,-76 1,-67 -2,-52 -2,-32 -2,-23 -1,-13 0,-2 Z"/>
  </g>
  <g id="bullet-char-template-10004" transform="scale(0.00048828125,-0.00048828125)">
   <path d="M 285,-33 C 182,-33 111,30 74,156 52,228 41,333 41,471 41,549 55,616 82,672 116,743 169,778 240,778 293,778 328,747 346,684 L 369,508 C 377,444 397,411 428,410 L 1163,1116 C 1174,1127 1196,1133 1229,1133 1271,1133 1292,1118 1292,1087 L 1292,965 C 1292,929 1282,901 1262,881 L 442,47 C 390,-6 338,-33 285,-33 Z"/>
  </g>
  <g id="bullet-char-template-9679" transform="scale(0.00048828125,-0.00048828125)">
   <path d="M 813,0 C 632,0 489,54 383,161 276,268 223,411 223,592 223,773 276,916 383,1023 489,1130 632,1184 813,1184 992,1184 1136,1130 1245,1023 1353,916 1407,772 1407,592 1407,412 1353,268 1245,161 1136,54 992,0 813,0 Z"/>
  </g>
  <g id="bullet-char-template-8226" transform="scale(0.00048828125,-0.00048828125)">
   <path d="M 346,457 C 273,457 209,483 155,535 101,586 74,649 74,723 74,796 101,859 155,911 209,963 273,989 346,989 419,989 480,963 531,910 582,859 608,796 608,723 608,648 583,586 532,535 482,483 420,457 346,457 Z"/>
  </g>
  <g id="bullet-char-template-8211" transform="scale(0.00048828125,-0.00048828125)">
   <path d="M -4,459 L 1135,459 1135,606 -4,606 -4,459 Z"/>
  </g>
  <g id="bullet-char-template-61548" transform="scale(0.00048828125,-0.00048828125)">
   <path d="M 173,740 C 173,903 231,1043 346,1159 462,1274 601,1332 765,1332 928,1332 1067,1274 1183,1159 1299,1043 1357,903 1357,740 1357,577 1299,437 1183,322 1067,206 928,148 765,148 601,148 462,206 346,322 231,437 173,577 173,740 Z"/>
  </g>
 </defs>
 <g>
  <g id="id2" class="Master_Slide">
   <g id="bg-id2" class="Background"/>
   <g id="bo-id2" class="BackgroundObjects"/>
  </g>
 </g>
 <g class="SlideGroup">
  <g>
   <g id="container-id1">
    <g id="id1" class="Slide" clip-path="url(#presentation_clip_path)">
     <g class="Page">
      <g class="Graphic">
       <title>spirograph
       </title>
       <g id="id3">
        <rect class="BoundingBox" stroke="none" fill="none" x="0" y="0" width="7144" height="1433"/>
        <defs>
         <clipPath id="clip_path_1" clipPathUnits="userSpaceOnUse">
          <path d="M 0,0 L 7143,0 7143,1432 0,1432 0,0 Z"/>
         </clipPath>
        </defs>
        <g clip-path="url(#clip_path_1)">
         <path fill="none" stroke="rgb(34,40,49)" stroke-width="16" stroke-linejoin="miter" d="M 1103,708 C 1103,690 1109,671 1119,655 1129,638 1144,624 1163,613 1181,603 1204,596 1228,595 1252,593 1278,597 1304,606 1329,615 1355,629 1378,649 1401,669 1422,693 1438,722 1455,750 1467,782 1475,816 1482,851 1483,887 1479,923 1475,959 1466,995 1450,1029 1435,1063 1415,1094 1390,1122 1366,1149 1337,1173 1306,1191 1275,1209 1241,1222 1208,1229 1174,1237 1140,1238 1109,1235 1077,1231 1047,1222 1020,1209 994,1196 972,1178 954,1159 937,1139 924,1118 917,1096 910,1074 908,1051 911,1031 914,1011 922,992 934,978 945,963 961,952 979,946 996,939 1016,938 1035,942 1055,946 1074,956 1091,970 1108,984 1123,1003 1134,1026 1145,1048 1152,1075 1154,1103 1155,1131 1152,1161 1143,1191 1134,1221 1119,1251 1100,1278 1080,1305 1055,1330 1026,1351 997,1371 964,1388 929,1399 894,1410 857,1416 820,1416 783,1416 746,1410 711,1399 676,1388 643,1371 614,1351 585,1330 561,1305 541,1278 521,1251 506,1221 497,1191 488,1161 485,1131 487,1103 488,1075 495,1048 506,1026 517,1003 532,984 549,970 566,956 586,946 605,942 624,938 644,939 662,946 679,952 695,963 707,978 718,992 726,1011 730,1031 733,1051 731,1074 723,1096 716,1118 704,1139 686,1159 668,1178 646,1196 620,1209 594,1222 564,1231 532,1235 500,1238 466,1237 432,1229 399,1222 365,1209 334,1191 303,1173 275,1149 250,1122 225,1094 205,1063 190,1029 175,995 165,959 161,923 157,887 159,851 166,816 173,782 185,750 202,722 218,693 239,669 262,649 285,629 311,615 337,606 362,597 388,593 413,595 437,596 459,603 478,613 496,624 511,638 521,655 532,671 537,690 537,708 537,727 532,745 521,762 511,778 496,792 478,803 459,813 437,820 413,821 388,823 362,819 337,810 311,801 285,787 262,767 239,748 218,723 202,695 185,666 173,634 166,600 159,565 157,529 161,493 165,457 175,421 190,387 205,353 225,322 250,294 275,267 303,243 334,225 365,207 399,194 432,187 466,179 500,178 532,182 564,185 594,194 620,207 646,220 668,238 686,257 704,277 716,299 723,321 731,343 733,365 730,385 726,405 718,424 707,439 695,453 679,464 662,471 644,477 624,478 605,474 586,470 566,461 549,446 532,432 517,413 506,390 495,368 488,341 487,313 485,285 488,255 497,225 506,195 521,165 541,138 561,111 585,86 614,65 643,45 676,28 711,17 746,6 783,0 820,0 857,0 894,6 929,17 964,28 997,45 1026,65 1055,86 1080,111 1100,138 1119,165 1134,195 1143,225 1152,255 1155,285 1154,313 1152,341 1145,368 1134,390 1123,413 1108,432 1091,446 1074,461 1055,470 1035,474 1016,478 996,477 979,471 961,464 945,453 934,439 922,424 914,405 911,385 908,365 910,343 917,321 924,299 937,277 954,257 972,238 994,220 1020,207 1047,194 1077,185 1109,182 1140,178 1174,179 1208,187 1241,194 1275,207 1306,225 1337,243 1366,267 1390,294 1415,322 1435,353 1450,387 1466,421 1475,457 1479,493 1483,529 1482,565 1475,600 1467,634 1455,666 1438,695 1422,723 1401,748 1378,767 1355,787 1329,801 1304,810 1278,819 1252,823 1228,821 1204,820 1181,813 1163,803 1144,792 1129,778 1119,762 1109,745 1103,727 1103,708 Z"/>
         <path fill="rgb(34,40,49)" stroke="none" d="M 2699,984 L 2552,984 2505,447 2324,984 2228,984 2047,447 2000,984 1852,984 1912,271 2123,271 2275,719 2429,271 2641,271 2699,984 Z M 3179,847 C 3179,909 3185,948 3191,971 L 3191,984 3058,984 3047,929 C 3009,975 2943,994 2884,994 2804,994 2726,959 2726,853 2726,748 2805,713 2911,689 L 2994,671 C 3030,662 3043,650 3043,629 3043,579 2998,565 2958,565 2906,565 2867,586 2858,643 L 2733,620 C 2754,515 2831,467 2966,467 3067,467 3179,497 3179,650 L 3179,847 3179,847 Z M 3051,752 L 2930,787 C 2891,796 2862,810 2862,844 2862,880 2892,898 2929,898 2996,898 3051,853 3051,752 Z M 3594,477 L 3729,477 3729,946 C 3729,1144 3622,1224 3460,1224 3314,1224 3235,1162 3198,1066 L 3316,1016 C 3345,1082 3386,1113 3455,1113 3544,1113 3586,1057 3586,957 L 3586,898 C 3557,938 3499,967 3432,967 3306,967 3201,867 3201,716 3201,564 3307,467 3433,467 3504,467 3563,499 3590,544 L 3594,477 Z M 3469,852 C 3543,852 3600,791 3600,716 3600,640 3544,580 3469,580 3394,580 3338,638 3338,716 3338,793 3395,852 3469,852 Z M 3876,401 C 3832,401 3794,365 3794,319 3794,274 3832,238 3876,238 3920,238 3958,274 3958,319 3958,365 3920,401 3876,401 Z M 3804,984 L 3804,477 3947,477 3947,984 3804,984 Z M 4461,402 L 4189,402 4189,564 4424,564 4424,692 4189,692 4189,984 4040,984 4040,271 4461,271 4461,402 4461,402 Z M 4912,847 C 4912,909 4918,948 4924,971 L 4924,984 4791,984 4780,929 C 4742,975 4676,994 4617,994 4537,994 4459,959 4459,853 4459,748 4537,713 4644,689 L 4727,671 C 4763,662 4776,650 4776,629 4776,579 4731,565 4691,565 4639,565 4600,586 4591,643 L 4465,620 C 4487,515 4564,467 4698,467 4800,467 4912,497 4912,650 L 4912,847 4912,847 Z M 4661,898 C 4729,898 4783,853 4783,752 L 4663,787 C 4623,796 4595,810 4595,844 4595,880 4625,898 4661,898 Z M 5207,994 C 5047,994 4935,888 4935,730 4935,572 5047,467 5207,467 5299,467 5374,501 5419,565 L 5419,477 5451,477 C 5505,477 5534,456 5534,380 L 5534,313 5663,313 5663,477 5767,477 5767,586 5663,586 5663,811 C 5663,856 5685,876 5721,876 L 5767,876 5767,984 5673,984 C 5575,984 5518,927 5518,826 L 5518,586 5432,586 C 5443,606 5451,629 5456,654 L 5325,668 C 5309,607 5265,579 5205,579 5129,579 5077,639 5077,730 5077,821 5129,881 5205,881 5265,881 5309,853 5325,792 L 5456,807 C 5431,927 5333,994 5207,994 L 5207,994 Z M 6041,994 C 5880,994 5763,896 5763,730 5763,565 5879,467 6041,467 6204,467 6320,566 6320,730 6320,896 6204,994 6041,994 Z M 6040,881 C 6122,881 6178,821 6178,730 6178,639 6122,579 6040,579 5960,579 5904,639 5904,730 5904,821 5960,881 6040,881 Z M 6489,558 C 6507,525 6546,495 6594,480 L 6593,477 6606,477 C 6622,473 6638,471 6654,471 L 6654,477 6748,477 6869,811 6997,477 7143,477 6830,1223 6686,1223 6802,964 6645,598 C 6544,600 6495,633 6495,737 L 6495,984 6352,984 6352,477 6489,477 6489,558 6489,558 Z"/>
        </g>
       </g>
      </g>
     </g>
    </g>
   </g>
  </g>
 </g>
</svg>